<mxfile host="Electron" modified="2022-10-03T16:24:10.278Z" agent="5.0 (Macintosh; Intel Mac OS X 10_15_7) AppleWebKit/537.36 (KHTML, like Gecko) draw.io/20.2.3 Chrome/102.0.5005.167 Electron/19.0.11 Safari/537.36" etag="FA1steiw2kz6RQS-KAj2" compressed="false" version="20.2.3" type="device">
  <diagram id="hERVvnEAhvcodaUDOUwB" name="第1頁">
    <mxGraphModel dx="850" dy="559" grid="1" gridSize="5" guides="1" tooltips="1" connect="1" arrows="1" fold="1" page="1" pageScale="1" pageWidth="827" pageHeight="1169" math="0" shadow="0">
      <root>
        <mxCell id="0" />
        <mxCell id="1" parent="0" />
        <mxCell id="zPm_YVhbSgkUuPr1N-gh-6" style="edgeStyle=orthogonalEdgeStyle;rounded=0;orthogonalLoop=1;jettySize=auto;html=1;strokeWidth=2;fontStyle=0;fontSize=12;" parent="1" source="Al7kNfdo14y8CUw9iGbo-3" target="Al7kNfdo14y8CUw9iGbo-24" edge="1">
          <mxGeometry relative="1" as="geometry" />
        </mxCell>
        <object label="var mailFrom = &#39;from@test.com&#39;&#xa;var mailRecipients = &#39;to@test.com&#39;&#xa;var mailSubject = &#39;Hello&#39;&#xa;var mailBody = &#39;Hi! Nice to meet you.&#39;&#xa;var mailHost = &#39;smtp.gmail.com&#39;&#xa;var mailPort = 465&#xa;var mailUserName = &#39;from@gmail.com&#39;&#xa;var mailPassword = &#39;xxx&#39;&#xa;var mailSecure = true" type="PROCESS" id="Al7kNfdo14y8CUw9iGbo-3">
          <mxCell style="fontSize=12;fontStyle=0;sketch=0;rounded=0;fontFamily=Tahoma;align=left;strokeWidth=2;arcSize=7;shadow=0;html=0;spacingLeft=5;verticalAlign=top;spacingTop=0;spacing=5;" parent="1" vertex="1">
            <mxGeometry x="80" y="120" width="260" height="160" as="geometry" />
          </mxCell>
        </object>
        <mxCell id="zPm_YVhbSgkUuPr1N-gh-7" style="edgeStyle=orthogonalEdgeStyle;rounded=0;orthogonalLoop=1;jettySize=auto;html=1;entryX=0.5;entryY=0;entryDx=0;entryDy=0;strokeWidth=2;fontStyle=0;fontSize=12;" parent="1" source="Al7kNfdo14y8CUw9iGbo-24" target="zPm_YVhbSgkUuPr1N-gh-2" edge="1">
          <mxGeometry relative="1" as="geometry" />
        </mxCell>
        <object label="" type="SEND_EMAIL" host="@mailHost" secure="@mailSecure" port="@mailPort" username="@mailUserName" password="@mailPassword" from="@mailFrom" recipients="@mailRecipients" bcc="" subject="@mailSubject" body="@mailBody" html="" attachments="@mailAttachments" id="Al7kNfdo14y8CUw9iGbo-24">
          <mxCell style="shape=image;verticalLabelPosition=bottom;labelBackgroundColor=default;verticalAlign=top;aspect=fixed;imageAspect=0;image=data:image/svg+xml,PHN2ZyB4bWxuczp4bGluaz0iaHR0cDovL3d3dy53My5vcmcvMTk5OS94bGluayIgeG1sbnM9Imh0dHA6Ly93d3cudzMub3JnLzIwMDAvc3ZnIiB4bWw6c3BhY2U9InByZXNlcnZlIiBzdHlsZT0iZW5hYmxlLWJhY2tncm91bmQ6bmV3IDAgMCA1MDUgNTA1OyIgdmlld0JveD0iMCAwIDUwNSA1MDUiIHk9IjBweCIgeD0iMHB4IiBpZD0iTGF5ZXJfMSIgdmVyc2lvbj0iMS4xIj4mI3hhOzxjaXJjbGUgcj0iMjUyLjUiIGN5PSIyNTIuNSIgY3g9IjI1Mi41IiBzdHlsZT0iZmlsbDojRkZEMDVCOyIvPiYjeGE7PHBhdGggZD0iTTQwNC44LDE4MS41TDI2MS4zLDc3LjRjLTUuMi0zLjgtMTIuMy0zLjgtMTcuNiwwTDEwMC40LDE4MS41bDE1Mi4yLDk2LjlMNDA0LjgsMTgxLjV6IiBzdHlsZT0iZmlsbDojRTZFOUVFOyIvPiYjeGE7PHJlY3QgaGVpZ2h0PSIxNjIuNSIgd2lkdGg9IjE4Ny40IiBzdHlsZT0iZmlsbDojRkY3MDU4OyIgeT0iMTgxLjUiIHg9IjE1OC45Ii8+JiN4YTs8Zz4mI3hhOwk8cG9seWdvbiBwb2ludHM9IjQwNC43LDM3NS4yIDQwNC44LDM3NS4yIDQwNC44LDE4MS41IDQwNC44LDE4MS41IDI1Mi42LDI3OC40IiBzdHlsZT0iZmlsbDojRkZGRkZGOyIvPiYjeGE7CTxwb2x5Z29uIHBvaW50cz0iMTAwLjQsMTgxLjUgMTAwLjIsMTgxLjUgMTAwLjIsMzc1LjIgMTAwLjUsMzc1LjIgMjUyLjYsMjc4LjQiIHN0eWxlPSJmaWxsOiNGRkZGRkY7Ii8+JiN4YTs8L2c+JiN4YTs8cG9seWdvbiBwb2ludHM9IjI1Mi42LDI3OC40IDEwMC41LDM3NS4yIDQwNC43LDM3NS4yIiBzdHlsZT0iZmlsbDojRTZFOUVFOyIvPiYjeGE7PGc+JiN4YTs8L2c+JiN4YTs8Zz4mI3hhOzwvZz4mI3hhOzxnPiYjeGE7PC9nPiYjeGE7PGc+JiN4YTs8L2c+JiN4YTs8Zz4mI3hhOzwvZz4mI3hhOzxnPiYjeGE7PC9nPiYjeGE7PGc+JiN4YTs8L2c+JiN4YTs8Zz4mI3hhOzwvZz4mI3hhOzxnPiYjeGE7PC9nPiYjeGE7PGc+JiN4YTs8L2c+JiN4YTs8Zz4mI3hhOzwvZz4mI3hhOzxnPiYjeGE7PC9nPiYjeGE7PGc+JiN4YTs8L2c+JiN4YTs8Zz4mI3hhOzwvZz4mI3hhOzxnPiYjeGE7PC9nPiYjeGE7PC9zdmc+;metaEdit=1;fontStyle=0;fontSize=12;" parent="1" vertex="1" host="@mailHost" secure="@mailSecure" port="@mailPort" username="@mailUserName" password="@mailPassword" from="@mailFrom" recipients="@mailRecipients" bcc="" subject="@mailSubject" body="@mailBody" html="" attachments="@mailAttachments">
            <mxGeometry x="180" y="320" width="60" height="60" as="geometry" />
          </mxCell>
        </object>
        <object label="" type="STOP" id="zPm_YVhbSgkUuPr1N-gh-2">
          <mxCell style="shape=image;verticalLabelPosition=bottom;labelBackgroundColor=default;verticalAlign=top;aspect=fixed;imageAspect=0;image=data:image/svg+xml,PHN2ZyB4bWxuczp4bGluaz0iaHR0cDovL3d3dy53My5vcmcvMTk5OS94bGluayIgeG1sbnM9Imh0dHA6Ly93d3cudzMub3JnLzIwMDAvc3ZnIiB4bWw6c3BhY2U9InByZXNlcnZlIiBzdHlsZT0iZW5hYmxlLWJhY2tncm91bmQ6bmV3IDAgMCA1MDQuMTM5IDUwNC4xMzk7IiB2aWV3Qm94PSIwIDAgNTA0LjEzOSA1MDQuMTM5IiB5PSIwcHgiIHg9IjBweCIgaWQ9IkxheWVyXzEiIHZlcnNpb249IjEuMSI+JiN4YTs8cGF0aCBkPSJNNDk3LjE2LDE0MC42OTRMMzYzLjQyNSw2Ljk2N2MtNC40NTgtNC40NTgtMTAuNS02Ljk2My0xNi43OTQtNi45NjNIMTU3LjQ5OSYjMTA7JiM5O2MtNi4zMDksMC0xMi4zNTEsMi41MDUtMTYuODA5LDYuOTYzTDYuOTYzLDE0MC42OTRDMi41MDUsMTQ1LjE1MiwwLDE1MS4xOTQsMCwxNTcuNTAzdjE4OS4xMzNjMCw2LjMwMiwyLjUwNSwxMi4zNDMsNi45NjMsMTYuODAxJiMxMDsmIzk7bDEzMy43MzQsMTMzLjczNGM0LjQ1LDQuNDU4LDEwLjUsNi45NjMsMTYuODA5LDYuOTYzSDM0Ni42NGM2LjI5NCwwLDEyLjMzNS0yLjQ5NywxNi43OTQtNi45NTVsMTMzLjc0Mi0xMzMuNzM0JiMxMDsmIzk7YzQuNDUtNC40NTgsNi45NjMtMTAuNSw2Ljk2My0xNi44MDlWMTU3LjUwM0M1MDQuMTIzLDE1MS4xOTQsNTAxLjYxOCwxNDUuMTUyLDQ5Ny4xNiwxNDAuNjk0eiIgc3R5bGU9ImZpbGw6I0NDMDkyRTsiLz4mI3hhOzxwYXRoIGQ9Ik02Ni43NzMsODAuODkyTDYuOTYzLDE0MC42OTRDMi41MDUsMTQ1LjE1MiwwLDE1MS4xOTQsMCwxNTcuNTAzdjE4OS4xMzMmIzEwOyYjOTtjMCw2LjMwMiwyLjUwNSwxMi4zNDMsNi45NjMsMTYuODAxbDEzMy43MzQsMTMzLjczNGM0LjQ1LDQuNDU4LDEwLjUsNi45NjMsMTYuODA5LDYuOTYzSDM0Ni42NGM2LjI5NCwwLDEyLjMzNS0yLjQ5NywxNi43OTQtNi45NTUmIzEwOyYjOTtsNTkuODA5LTU5LjgwOUw2Ni43NzMsODAuODkyeiIgc3R5bGU9ImZpbGw6I0U4MTU0MjsiLz4mI3hhOzxnPiYjeGE7CTxwYXRoIGQ9Ik04Ni4zNTUsMjQ3LjE1Yy0xNS44OC02LjEzNi0yMC43MDgtMTAuNTQ3LTIwLjcwOC0xOC44NTdjMC02LjI1NCw0LjcyNi0xMy41NjQsMTguMDYyLTEzLjU2NCYjMTA7JiM5OyYjOTtjOS4xMDYsMCwxNi4wNjEsMi43NTcsMjAuMzA3LDUuMDY1YzEuMDE2LDAuNTUxLDIuMjI5LDAuNjM4LDMuMzA4LDAuMjEzYzEuMDk1LTAuNDI1LDEuOTM4LTEuMzA4LDIuMzA4LTIuNDFsNC4xNTEtMTIuMzA0JiMxMDsmIzk7JiM5O2MwLjYxNC0xLjc4OC0wLjE0Mi0zLjc1Ny0xLjc4OC00LjY4N2MtNC4xMDQtMi4zMjQtMTMuMTctNi4yMzEtMjcuNzY2LTYuMjMxYy0yNC41NjgsMC00MS43MjQsMTQuNjU5LTQxLjcyNCwzNS42NTkmIzEwOyYjOTsmIzk7YzAsMTYuNzg2LDEwLjk1NywyOC44MywzMy4zNjcsMzYuNzc3YzE2LjMwNSw2LjI2MiwxOS40OTUsMTEuOTEsMTkuNDk1LDE5LjU0M2MwLDEwLjAxMi03LjY2NCwxNS45OS0yMC40OTYsMTUuOTkmIzEwOyYjOTsmIzk7Yy04LjQ3NiwwLTE3LjgxOC0yLjYzMS0yNC45ODYtNy4wNDJjLTEuMDE2LTAuNjM4LTIuMzA4LTAuNzY0LTMuNDU4LTAuMzMxYy0xLjE0MiwwLjQzMy0yLjAxNiwxLjM3MS0yLjM3MSwyLjU0NGwtMy44MTIsMTIuNjUmIzEwOyYjOTsmIzk7Yy0wLjQ4OCwxLjY2MiwwLjE0MiwzLjQ1LDEuNTgzLDQuNDE5YzcuMTY4LDQuNzczLDIwLjMzOCw4LjExMywzMS45OTYsOC4xMTNjMzAuOTg4LDAsNDQuODQzLTE4Ljg2NSw0NC44NDMtMzcuNTY1JiMxMDsmIzk7JiM5O0MxMTguNjc0LDI2Ny4yNjgsMTA5LjAwMSwyNTUuOTAyLDg2LjM1NSwyNDcuMTV6IiBzdHlsZT0iZmlsbDojQjIwNDJFOyIvPiYjeGE7CTxwYXRoIGQ9Ik0yMjUuODE2LDE5Ni4yODFoLTg2LjQ4OWMtMi4xNjYsMC0zLjkzOCwxLjc2NC0zLjkzOCwzLjkzOHYxMi44MjRjMCwyLjE3NCwxLjc3MiwzLjkzOCwzLjkzOCwzLjkzOCYjMTA7JiM5OyYjOTtoMzEuNjAydjEwMC4wNTNjMCwyLjE3NCwxLjc1NywzLjkzOCwzLjkzOCwzLjkzOGgxNS4yNWMyLjE4MiwwLDMuOTM4LTEuNzY0LDMuOTM4LTMuOTM4VjIxNi45ODJoMzEuNzY4JiMxMDsmIzk7JiM5O2MyLjE4MiwwLDMuOTM4LTEuNzY0LDMuOTM4LTMuOTM4VjIwMC4yMkMyMjkuNzU0LDE5OC4wNDYsMjI3Ljk5OCwxOTYuMjgxLDIyNS44MTYsMTk2LjI4MXoiIHN0eWxlPSJmaWxsOiNCMjA0MkU7Ii8+JiN4YTsJPHBhdGggZD0iTTI5OC43NzIsMTk0LjM3NWMtMzQuMjY1LDAtNTguMTg3LDI2Ljg1Mi01OC4xODcsNjUuMjkyYzAsMzcuMjE4LDIzLjIxMyw2My4yMTIsNTYuNDQ2LDYzLjIxMiYjMTA7JiM5OyYjOTtjMjguOTcxLDAsNTguMTg3LTIwLjI0NCw1OC4xODctNjUuNDY1QzM1NS4yMTgsMjE5LjcwNywzMzIuNTQsMTk0LjM3NSwyOTguNzcyLDE5NC4zNzV6IE0yOTcuOTA1LDMwMi42OTgmIzEwOyYjOTsmIzk7Yy0yMi44OSwwLTMzLjMxOS0yMi40ODEtMzMuMzE5LTQzLjM3OGMwLTIyLjI4NCwxMC4zNS00NC43NjUsMzMuNDkzLTQ0Ljc2NWMyMi44OSwwLDMzLjMxOSwyMi41NzUsMzMuMzE5LDQzLjU1MiYjMTA7JiM5OyYjOTtDMzMxLjM5OCwyODAuMjk2LDMyMS4wNDgsMzAyLjY5OCwyOTcuOTA1LDMwMi42OTh6IiBzdHlsZT0iZmlsbDojQjIwNDJFOyIvPiYjeGE7CTxwYXRoIGQ9Ik00NTIuNTA2LDIwNi4xMjdjLTcuODkzLTcuMTEzLTE5LjgwMy0xMC43MTMtMzUuMzgzLTEwLjcxM2MtMTAuNjAyLDAtMjAuMjc1LDAuNzU2LTI5LjYwMSwyLjMmIzEwOyYjOTsmIzk7Yy0xLjg5LDAuMzE1LTMuMjkzLDEuOTYxLTMuMjkzLDMuODgzdjExNS40MjhjMCwyLjE3NCwxLjc3MiwzLjkzOCwzLjkzOCwzLjkzOGgxNS4wOTJjMi4xNjYsMCwzLjkzOC0xLjc2NCwzLjkzOC0zLjkzOHYtNDIuMTQ5JiMxMDsmIzk7JiM5O2MyLjY5NCwwLjI3Niw1LjQ3NCwwLjMzMSw4LjE4NCwwLjMzMWMxNi4zNjgsMCwzMC4wNTgtNC45OTQsMzguNTI2LTE0LjAxM2M2LjcyNy02LjkxNiwxMC4xMzgtMTYuMjQyLDEwLjEzOC0yNy43MDMmIzEwOyYjOTsmIzk7QzQ2NC4wNDUsMjIyLjI3NSw0NTkuOTI2LDIxMi41MzksNDUyLjUwNiwyMDYuMTI3eiBNNDE1LjczNiwyNTUuMjA4Yy0zLjM4NywwLTYuMjE1LTAuMTY1LTguNTM5LTAuNDk2di0zOC45MDQmIzEwOyYjOTsmIzk7YzIuNDAyLTAuMzE1LDUuODQ1LTAuNTUxLDEwLjI2NC0wLjU1MWMxMC43ODQsMCwyMy42MzEsMy4yODUsMjMuNjMxLDE4LjkzNkM0NDEuMDkyLDI1Mi40NzUsNDI1LjE5NiwyNTUuMjA4LDQxNS43MzYsMjU1LjIwOHoiIHN0eWxlPSJmaWxsOiNCMjA0MkU7Ii8+JiN4YTs8L2c+JiN4YTs8cGF0aCBkPSJNODYuMzU1LDI0MC41ODljLTE1Ljg4LTYuMTM2LTIwLjcwOC0xMC41NDctMjAuNzA4LTE4Ljg1N2MwLTYuMjU0LDQuNzI2LTEzLjU2NCwxOC4wNjItMTMuNTY0JiMxMDsmIzk7YzkuMTA2LDAsMTYuMDYxLDIuNzU3LDIwLjMwNyw1LjA2NWMxLjAxNiwwLjU1MSwyLjIyOSwwLjYzOCwzLjMwOCwwLjIxM2MxLjA5NS0wLjQyNSwxLjkzOC0xLjMwOCwyLjMwOC0yLjQxbDQuMTUxLTEyLjMwNCYjMTA7JiM5O2MwLjYxNC0xLjc4OC0wLjE0Mi0zLjc1Ny0xLjc4OC00LjY4N2MtNC4xMDQtMi4zMjQtMTMuMTctNi4yMzEtMjcuNzY2LTYuMjMxYy0yNC41NjgsMC00MS43MjQsMTQuNjU5LTQxLjcyNCwzNS42NTkmIzEwOyYjOTtjMCwxNi43ODYsMTAuOTU3LDI4LjgzLDMzLjM2NywzNi43NzdjMTYuMzA1LDYuMjYyLDE5LjQ5NSwxMS45MSwxOS40OTUsMTkuNTQzYzAsMTAuMDEyLTcuNjY0LDE1Ljk5LTIwLjQ5NiwxNS45OSYjMTA7JiM5O2MtOC40NzYsMC0xNy44MTgtMi42MzEtMjQuOTg2LTcuMDQyYy0xLjAxNi0wLjYzOC0yLjMwOC0wLjc2NC0zLjQ1OC0wLjMzMWMtMS4xMzQsMC40NDEtMi4wMDksMS4zODYtMi4zNjMsMi41NTJsLTMuODEyLDEyLjY1JiMxMDsmIzk7Yy0wLjQ4OCwxLjY2MiwwLjE0MiwzLjQ1LDEuNTgzLDQuNDE5YzcuMTY4LDQuNzczLDIwLjMzOCw4LjExMywzMS45OTYsOC4xMTNjMzAuOTg4LDAsNDQuODQzLTE4Ljg2NSw0NC44NDMtMzcuNTY1JiMxMDsmIzk7QzExOC42NzQsMjYwLjcwNiwxMDkuMDAxLDI0OS4zNCw4Ni4zNTUsMjQwLjU4OXoiIHN0eWxlPSJmaWxsOiNGRkZGRkY7Ii8+JiN4YTs8cGF0aCBkPSJNMjI1LjgxNiwxODkuNzJoLTg2LjQ4OWMtMi4xNjYsMC0zLjkzOCwxLjc2NC0zLjkzOCwzLjkzOHYxMi44MjRjMCwyLjE3NCwxLjc3MiwzLjkzOCwzLjkzOCwzLjkzOCYjMTA7JiM5O2gzMS42MDJ2MTAwLjA1M2MwLDIuMTc0LDEuNzU3LDMuOTM4LDMuOTM4LDMuOTM4aDE1LjI1YzIuMTgyLDAsMy45MzgtMS43NjQsMy45MzgtMy45MzhWMjEwLjQyaDMxLjc2OCYjMTA7JiM5O2MyLjE4MiwwLDMuOTM4LTEuNzY0LDMuOTM4LTMuOTM4di0xMi44MjRDMjI5Ljc1NCwxOTEuNDg0LDIyNy45OTgsMTg5LjcyLDIyNS44MTYsMTg5LjcyeiIgc3R5bGU9ImZpbGw6I0UwRTBFMDsiLz4mI3hhOzxwYXRoIGQ9Ik0xNzUuNTkyLDE4OS43MmgtMzYuMjY1Yy0yLjE2NiwwLTMuOTM4LDEuNzY0LTMuOTM4LDMuOTM4djEyLjgyNGMwLDIuMTc0LDEuNzcyLDMuOTM4LDMuOTM4LDMuOTM4JiMxMDsmIzk7aDMxLjYwMnYxMDAuMDUzYzAsMi4xNzQsMS43NTcsMy45MzgsMy45MzgsMy45MzhoMTUuMjVjMi4xODIsMCwzLjkzOC0xLjc2NCwzLjkzOC0zLjkzOFYyMTAuNDJoMi4yNDVMMTc1LjU5MiwxODkuNzJ6IiBzdHlsZT0iZmlsbDojRkZGRkZGOyIvPiYjeGE7PHBhdGggZD0iTTI5OC43NzIsMTg3LjgxM2MtMzQuMjY1LDAtNTguMTg3LDI2Ljg1Mi01OC4xODcsNjUuMjkyYzAsMzcuMjE4LDIzLjIxMyw2My4yMTIsNTYuNDQ2LDYzLjIxMiYjMTA7JiM5O2MyOC45NzEsMCw1OC4xODctMjAuMjQ0LDU4LjE4Ny02NS40NjVDMzU1LjIxOCwyMTMuMTQ2LDMzMi41NCwxODcuODEzLDI5OC43NzIsMTg3LjgxM3ogTTI5Ny45MDUsMjk2LjEzNyYjMTA7JiM5O2MtMjIuODksMC0zMy4zMTktMjIuNDgxLTMzLjMxOS00My4zNzhjMC0yMi4yODQsMTAuMzUtNDQuNzY1LDMzLjQ5My00NC43NjVjMjIuODksMCwzMy4zMTksMjIuNTc1LDMzLjMxOSw0My41NTImIzEwOyYjOTtDMzMxLjM5OCwyNzMuNzM1LDMyMS4wNDgsMjk2LjEzNywyOTcuOTA1LDI5Ni4xMzd6IiBzdHlsZT0iZmlsbDojRTBFMEUwOyIvPiYjeGE7PHBhdGggZD0iTTI0MC42NDgsMjU0Ljc3NWMwLjY5MywzNi4zMTMsMjMuNjYyLDYxLjU0Miw1Ni4zODMsNjEuNTQyYzEuNjQ2LDAsMy4zMDgtMC4wODcsNC45MzktMC4yMTMmIzEwOyYjOTtMMjQwLjY0OCwyNTQuNzc1eiIgc3R5bGU9ImZpbGw6I0ZGRkZGRjsiLz4mI3hhOzxwYXRoIGQ9Ik00NTIuNTA2LDE5OS41NjZjLTcuODkzLTcuMTEzLTE5LjgwMy0xMC43MTMtMzUuMzgzLTEwLjcxM2MtMTAuNjAyLDAtMjAuMjc1LDAuNzU2LTI5LjYwMSwyLjMmIzEwOyYjOTtjLTEuODksMC4zMTUtMy4yOTMsMS45NjEtMy4yOTMsMy44ODN2MTE1LjQyOGMwLDIuMTc0LDEuNzcyLDMuOTM4LDMuOTM4LDMuOTM4aDE1LjA5MmMyLjE2NiwwLDMuOTM4LTEuNzY0LDMuOTM4LTMuOTM4di00Mi4xNDkmIzEwOyYjOTtjMi42OTQsMC4yNzYsNS40NzQsMC4zMzEsOC4xODQsMC4zMzFjMTYuMzY4LDAsMzAuMDU4LTQuOTk0LDM4LjUyNi0xNC4wMTNjNi43MjctNi45MTYsMTAuMTM4LTE2LjI0MiwxMC4xMzgtMjcuNzAzJiMxMDsmIzk7QzQ2NC4wNDUsMjE1LjcxNCw0NTkuOTI2LDIwNS45NzgsNDUyLjUwNiwxOTkuNTY2eiBNNDE1LjczNiwyNDguNjQ3Yy0zLjM4NywwLTYuMjE1LTAuMTY1LTguNTM5LTAuNDk2di0zOC45MDQmIzEwOyYjOTtjMi40MDItMC4zMTUsNS44NDUtMC41NTEsMTAuMjY0LTAuNTUxYzEwLjc4NCwwLDIzLjYzMSwzLjI4NSwyMy42MzEsMTguOTM2QzQ0MS4wOTIsMjQ1LjkxNCw0MjUuMTk2LDI0OC42NDcsNDE1LjczNiwyNDguNjQ3eiIgc3R5bGU9ImZpbGw6I0UwRTBFMDsiLz4mI3hhOzxnPiYjeGE7PC9nPiYjeGE7PGc+JiN4YTs8L2c+JiN4YTs8Zz4mI3hhOzwvZz4mI3hhOzxnPiYjeGE7PC9nPiYjeGE7PGc+JiN4YTs8L2c+JiN4YTs8Zz4mI3hhOzwvZz4mI3hhOzxnPiYjeGE7PC9nPiYjeGE7PGc+JiN4YTs8L2c+JiN4YTs8Zz4mI3hhOzwvZz4mI3hhOzxnPiYjeGE7PC9nPiYjeGE7PGc+JiN4YTs8L2c+JiN4YTs8Zz4mI3hhOzwvZz4mI3hhOzxnPiYjeGE7PC9nPiYjeGE7PGc+JiN4YTs8L2c+JiN4YTs8Zz4mI3hhOzwvZz4mI3hhOzwvc3ZnPg==;metaEdit=1;fontStyle=0;fontSize=12;" parent="1" vertex="1">
            <mxGeometry x="180" y="420" width="60" height="60" as="geometry" />
          </mxCell>
        </object>
        <mxCell id="zPm_YVhbSgkUuPr1N-gh-9" style="edgeStyle=orthogonalEdgeStyle;rounded=0;orthogonalLoop=1;jettySize=auto;html=1;strokeWidth=2;fontStyle=0;fontSize=12;" parent="1" source="zPm_YVhbSgkUuPr1N-gh-8" target="Al7kNfdo14y8CUw9iGbo-3" edge="1">
          <mxGeometry relative="1" as="geometry" />
        </mxCell>
        <object label="" type="START" id="zPm_YVhbSgkUuPr1N-gh-8">
          <mxCell style="shape=image;verticalLabelPosition=bottom;labelBackgroundColor=default;verticalAlign=top;aspect=fixed;imageAspect=0;image=data:image/svg+xml,PHN2ZyB4bWxuczp4bGluaz0iaHR0cDovL3d3dy53My5vcmcvMTk5OS94bGluayIgeG1sbnM9Imh0dHA6Ly93d3cudzMub3JnLzIwMDAvc3ZnIiB4bWw6c3BhY2U9InByZXNlcnZlIiBzdHlsZT0iZW5hYmxlLWJhY2tncm91bmQ6bmV3IDAgMCA0OTYuMTU4IDQ5Ni4xNTg7IiB2aWV3Qm94PSIwIDAgNDk2LjE1OCA0OTYuMTU4IiB5PSIwcHgiIHg9IjBweCIgaWQ9IkxheWVyXzEiIHZlcnNpb249IjEuMSI+JiN4YTs8cGF0aCBkPSJNNDk2LjE1OCwyNDguMDg1YzAtMTM3LjAyMS0xMTEuMDctMjQ4LjA4Mi0yNDguMDc2LTI0OC4wODJDMTExLjA3LDAuMDAyLDAsMTExLjA2MiwwLDI0OC4wODUmIzEwOyYjOTtjMCwxMzcuMDAyLDExMS4wNywyNDguMDcxLDI0OC4wODMsMjQ4LjA3MUMzODUuMDg4LDQ5Ni4xNTUsNDk2LjE1OCwzODUuMDg2LDQ5Ni4xNTgsMjQ4LjA4NXoiIHN0eWxlPSJmaWxsOiMzMkJFQTY7Ii8+JiN4YTs8cGF0aCBkPSJNMzcwLjgwNSwyMzUuMjQyTDE5NS44NTYsMTI3LjgxOGMtNC43NzYtMi45MzQtMTEuMDYxLTMuMDYxLTE1Ljk1MS0wLjMyMiYjMTA7JiM5O2MtNC45NzksMi43ODUtOC4wNzEsOC4wNTktOC4wNzEsMTMuNzYydjIxNGMwLDUuNjkzLDMuMDgzLDEwLjk2Myw4LjA0NiwxMy43NTJjMi4zNTMsMS4zMiw1LjAyNCwyLjAyLDcuNzI1LDIuMDImIzEwOyYjOTtjMi44OTcsMCw1LjczNC0wLjc5Nyw4LjIwNS0yLjMwM2wxNzQuOTQ3LTEwNi41NzZjNC42NTctMi44MzYsNy41NTYtNy45ODYsNy41NjUtMTMuNDQmIzEwOyYjOTtDMzc4LjMzMiwyNDMuMjU4LDM3NS40NTIsMjM4LjA5NiwzNzAuODA1LDIzNS4yNDJ6IiBzdHlsZT0iZmlsbDojRkZGRkZGOyIvPiYjeGE7PGc+JiN4YTs8L2c+JiN4YTs8Zz4mI3hhOzwvZz4mI3hhOzxnPiYjeGE7PC9nPiYjeGE7PGc+JiN4YTs8L2c+JiN4YTs8Zz4mI3hhOzwvZz4mI3hhOzxnPiYjeGE7PC9nPiYjeGE7PGc+JiN4YTs8L2c+JiN4YTs8Zz4mI3hhOzwvZz4mI3hhOzxnPiYjeGE7PC9nPiYjeGE7PGc+JiN4YTs8L2c+JiN4YTs8Zz4mI3hhOzwvZz4mI3hhOzxnPiYjeGE7PC9nPiYjeGE7PGc+JiN4YTs8L2c+JiN4YTs8Zz4mI3hhOzwvZz4mI3hhOzxnPiYjeGE7PC9nPiYjeGE7PC9zdmc+;metaEdit=1;fontStyle=0;fontSize=12;" parent="1" vertex="1">
            <mxGeometry x="180" y="20" width="60" height="60" as="geometry" />
          </mxCell>
        </object>
        <mxCell id="KsdG4uzdNCMlrqAVN-5F-1" value="&lt;span style=&quot;font-weight: normal;&quot;&gt;只要在&amp;nbsp;&lt;/span&gt;&lt;span style=&quot;font-size: 14px;&quot;&gt;&lt;span style=&quot;font-weight: normal;&quot;&gt;SEND_EMAIL 步驟的屬性值前面加上@，就可以從 Javascript 的變數取得屬性值。&lt;br&gt;&lt;br&gt;&lt;font color=&quot;#cc0000&quot;&gt;如果使用 gmail ，password 請改用應用程式密碼。&lt;/font&gt;&lt;/span&gt;&lt;br&gt;&lt;/span&gt;" style="shape=note2;boundedLbl=1;whiteSpace=wrap;html=1;size=25;verticalAlign=top;align=left;fillColor=#ffff88;horizontal=1;fontStyle=1;fontSize=14;spacingLeft=0;fontFamily=Helvetica;labelPosition=center;verticalLabelPosition=middle;spacing=10;strokeColor=#36393d;rounded=0;" vertex="1" parent="1">
          <mxGeometry x="360" y="120" width="335" height="160" as="geometry" />
        </mxCell>
      </root>
    </mxGraphModel>
  </diagram>
</mxfile>
